  0
SECTION
  2
HEADER
  9
$ACADVER
  1
AC1015
  9
$ACADMAINTVER
 70
     6
  9
$DWGCODEPAGE
  3
ANSI_1252
  9
$INSBASE
 10
0.0
 20
0.0
 30
0.0
  9
$EXTMIN
 10
0.0
 20
0.0
 30
0.0
  9
$EXTMAX
 10
594.0
 20
420.0
 30
0.0
  9
$LIMMIN
 10
0.0
 20
0.0
  9
$LIMMAX
 10
594.0
 20
420.0
  9
$ORTHOMODE
 70
     0
  9
$REGENMODE
 70
     1
  9
$FILLMODE
 70
     1
  9
$QTEXTMODE
 70
     0
  9
$MIRRTEXT
 70
     1
  9
$LTSCALE
 40
1.0
  9
$ATTMODE
 70
     1
  9
$TEXTSIZE
 40
2.5
  9
$TRACEWID
 40
1.0
  9
$TEXTSTYLE
  7
Standard
  9
$CLAYER
  8
0
  9
$CELTYPE
  6
ByLayer
  9
$CECOLOR
 62
   256
  9
$CELTSCALE
 40
1.0
  9
$DISPSILH
 70
     0
  9
$DIMSCALE
 40
1.0
  9
$DIMASZ
 40
2.5
  9
$DIMEXO
 40
0.625
  9
$DIMDLI
 40
3.75
  9
$DIMRND
 40
0.0
  9
$DIMDLE
 40
0.0
  9
$DIMEXE
 40
1.25
  9
$DIMTP
 40
0.0
  9
$DIMTM
 40
0.0
  9
$DIMTXT
 40
2.5
  9
$DIMCEN
 40
2.5
  9
$DIMTSZ
 40
0.0
  9
$DIMTOL
 70
     0
  9
$DIMLIM
 70
     0
  9
$DIMTIH
 70
     0
  9
$DIMTOH
 70
     0
  9
$DIMSE1
 70
     0
  9
$DIMSE2
 70
     0
  9
$DIMTAD
 70
     1
  9
$DIMZIN
 70
     8
  9
$DIMBLK
  1

  9
$DIMASO
 70
     1
  9
$DIMSHO
 70
     1
  9
$DIMPOST
  1

  9
$DIMAPOST
  1

  9
$DIMALT
 70
     0
  9
$DIMALTD
 70
     3
  9
$DIMALTF
 40
0.0393700787
  9
$DIMLFAC
 40
1.0
  9
$DIMTOFL
 70
     1
  9
$DIMTVP
 40
0.0
  9
$DIMTIX
 70
     0
  9
$DIMSOXD
 70
     0
  9
$DIMSAH
 70
     0
  9
$DIMBLK1
  1

  9
$DIMBLK2
  1

  9
$DIMSTYLE
  2
ISO-25
  9
$DIMCLRD
 70
     0
  9
$DIMCLRE
 70
     0
  9
$DIMCLRT
 70
     0
  9
$DIMTFAC
 40
1.0
  9
$DIMGAP
 40
0.625
  9
$DIMJUST
 70
     0
  9
$DIMSD1
 70
     0
  9
$DIMSD2
 70
     0
  9
$DIMTOLJ
 70
     0
  9
$DIMTZIN
 70
     8
  9
$DIMALTZ
 70
     0
  9
$DIMALTTZ
 70
     0
  9
$DIMUPT
 70
     0
  9
$DIMDEC
 70
     2
  9
$DIMTDEC
 70
     2
  9
$DIMALTU
 70
     2
  9
$DIMALTTD
 70
     3
  9
$DIMTXSTY
  7
Standard
  9
$DIMAUNIT
 70
     0
  9
$DIMADEC
 70
     0
  9
$DIMALTRND
 40
0.0
  9
$DIMAZIN
 70
     0
  9
$DIMDSEP
 70
    44
  9
$DIMATFIT
 70
     3
  9
$DIMFRAC
 70
     0
  9
$DIMLDRBLK
  1

  9
$DIMLUNIT
 70
     2
  9
$DIMLWD
 70
    -2
  9
$DIMLWE
 70
    -2
  9
$DIMTMOVE
 70
     0
  9
$LUNITS
 70
     2
  9
$LUPREC
 70
     4
  9
$SKETCHINC
 40
1.0
  9
$FILLETRAD
 40
10.0
  9
$AUNITS
 70
     0
  9
$AUPREC
 70
     0
  9
$MENU
  1
.
  9
$ELEVATION
 40
0.0
  9
$PELEVATION
 40
0.0
  9
$THICKNESS
 40
0.0
  9
$LIMCHECK
 70
     0
  9
$CHAMFERA
 40
10.0
  9
$CHAMFERB
 40
10.0
  9
$CHAMFERC
 40
20.0
  9
$CHAMFERD
 40
0.0
  9
$SKPOLY
 70
     0
  9
$TDCREATE
 40
2457995.48982441
  9
$TDUCREATE
 40
2457995.448157743
  9
$TDUPDATE
 40
2457995.489824421
  9
$TDUUPDATE
 40
2457995.448157755
  9
$TDINDWG
 40
0.0000000116
  9
$TDUSRTIMER
 40
0.0000000116
  9
$USRTIMER
 70
     1
  9
$ANGBASE
 50
0.0
  9
$ANGDIR
 70
     0
  9
$PDMODE
 70
     0
  9
$PDSIZE
 40
0.0
  9
$PLINEWID
 40
0.0
  9
$SPLFRAME
 70
     0
  9
$SPLINETYPE
 70
     6
  9
$SPLINESEGS
 70
     8
  9
$HANDSEED
  5
B2
  9
$SURFTAB1
 70
     6
  9
$SURFTAB2
 70
     6
  9
$SURFTYPE
 70
     6
  9
$SURFU
 70
     6
  9
$SURFV
 70
     6
  9
$UCSBASE
  2

  9
$UCSNAME
  2

  9
$UCSORG
 10
0.0
 20
0.0
 30
0.0
  9
$UCSXDIR
 10
1.0
 20
0.0
 30
0.0
  9
$UCSYDIR
 10
0.0
 20
1.0
 30
0.0
  9
$UCSORTHOREF
  2

  9
$UCSORTHOVIEW
 70
     0
  9
$UCSORGTOP
 10
0.0
 20
0.0
 30
0.0
  9
$UCSORGBOTTOM
 10
0.0
 20
0.0
 30
0.0
  9
$UCSORGLEFT
 10
0.0
 20
0.0
 30
0.0
  9
$UCSORGRIGHT
 10
0.0
 20
0.0
 30
0.0
  9
$UCSORGFRONT
 10
0.0
 20
0.0
 30
0.0
  9
$UCSORGBACK
 10
0.0
 20
0.0
 30
0.0
  9
$PUCSBASE
  2

  9
$PUCSNAME
  2

  9
$PUCSORG
 10
0.0
 20
0.0
 30
0.0
  9
$PUCSXDIR
 10
1.0
 20
0.0
 30
0.0
  9
$PUCSYDIR
 10
0.0
 20
1.0
 30
0.0
  9
$PUCSORTHOREF
  2

  9
$PUCSORTHOVIEW
 70
     0
  9
$PUCSORGTOP
 10
0.0
 20
0.0
 30
0.0
  9
$PUCSORGBOTTOM
 10
0.0
 20
0.0
 30
0.0
  9
$PUCSORGLEFT
 10
0.0
 20
0.0
 30
0.0
  9
$PUCSORGRIGHT
 10
0.0
 20
0.0
 30
0.0
  9
$PUCSORGFRONT
 10
0.0
 20
0.0
 30
0.0
  9
$PUCSORGBACK
 10
0.0
 20
0.0
 30
0.0
  9
$USERI1
 70
     0
  9
$USERI2
 70
     0
  9
$USERI3
 70
     0
  9
$USERI4
 70
     0
  9
$USERI5
 70
     0
  9
$USERR1
 40
0.0
  9
$USERR2
 40
0.0
  9
$USERR3
 40
0.0
  9
$USERR4
 40
0.0
  9
$USERR5
 40
0.0
  9
$WORLDVIEW
 70
     1
  9
$SHADEDGE
 70
     3
  9
$SHADEDIF
 70
    70
  9
$TILEMODE
 70
     1
  9
$MAXACTVP
 70
    64
  9
$PINSBASE
 10
0.0
 20
0.0
 30
0.0
  9
$PLIMCHECK
 70
     0
  9
$PEXTMIN
 10
0.0
 20
0.0
 30
0.0
  9
$PEXTMAX
 10
594.0
 20
420.0
 30
0.0
  9
$PLIMMIN
 10
0.0
 20
0.0
  9
$PLIMMAX
 10
594.0
 20
420.0
  9
$UNITMODE
 70
     0
  9
$VISRETAIN
 70
     1
  9
$PLINEGEN
 70
     0
  9
$PSLTSCALE
 70
     1
  9
$TREEDEPTH
 70
  3020
  9
$CMLSTYLE
  2
Standard
  9
$CMLJUST
 70
     0
  9
$CMLSCALE
 40
20.0
  9
$PROXYGRAPHICS
 70
     1
  9
$MEASUREMENT
 70
     1
  9
$CELWEIGHT
370
    -1
  9
$ENDCAPS
280
     0
  9
$JOINSTYLE
280
     0
  9
$LWDISPLAY
290
     0
  9
$INSUNITS
 70
     4
  9
$HYPERLINKBASE
  1

  9
$STYLESHEET
  1

  9
$XEDIT
290
     1
  9
$CEPSNTYPE
380
     0
  9
$PSTYLEMODE
290
     1
  9
$FINGERPRINTGUID
  2
{69C37078-522A-4376-A3BE-F8666B03EB73}
  9
$VERSIONGUID
  2
{FAEB1C32-E019-11D5-929B-00C0DF256EC4}
  9
$EXTNAMES
290
     1
  9
$PSVPSCALE
 40
0.0
  9
$OLESTARTUP
290
     0
  0
ENDSEC
  0
SECTION
  2
CLASSES
  0
CLASS
  1
ACDBDICTIONARYWDFLT
  2
AcDbDictionaryWithDefault
  3
ObjectDBX Classes
 90
        0
280
     0
281
     0
  0
CLASS
  1
ACDBPLACEHOLDER
  2
AcDbPlaceHolder
  3
ObjectDBX Classes
 90
        0
280
     0
281
     0
  0
CLASS
  1
LAYOUT
  2
AcDbLayout
  3
ObjectDBX Classes
 90
        0
280
     0
281
     0
  0
ENDSEC
  0
SECTION
  2
TABLES
  0
TABLE
  2
VPORT
  5
8
330
0
100
AcDbSymbolTable
 70
     1
  0
VPORT
  5
29
330
8
100
AcDbSymbolTableRecord
100
AcDbViewportTableRecord
  2
*Active
 70
     0
 10
0.0
 20
0.0
 11
1.0
 21
1.0
 12
344.1869158879
 22
148.5
 13
0.0
 23
0.0
 14
10.0
 24
10.0
 15
10.0
 25
10.0
 16
0.0
 26
0.0
 36
1.0
 17
0.0
 27
0.0
 37
0.0
 40
297.0
 41
1.9729729729
 42
50.0
 43
0.0
 44
0.0
 50
0.0
 51
0.0
 71
     0
 72
   100
 73
     1
 74
     3
 75
     0
 76
     0
 77
     0
 78
     0
281
     0
 65
     1
110
0.0
120
0.0
130
0.0
111
1.0
121
0.0
131
0.0
112
0.0
122
1.0
132
0.0
 79
     0
146
0.0
  0
ENDTAB
  0
TABLE
  2
LTYPE
  5
5
330
0
100
AcDbSymbolTable
 70
     1
  0
LTYPE
  5
14
330
5
100
AcDbSymbolTableRecord
100
AcDbLinetypeTableRecord
  2
ByBlock
 70
     0
  3

 72
    65
 73
     0
 40
0.0
  0
LTYPE
  5
15
330
5
100
AcDbSymbolTableRecord
100
AcDbLinetypeTableRecord
  2
ByLayer
 70
     0
  3

 72
    65
 73
     0
 40
0.0
  0
LTYPE
  5
16
330
5
100
AcDbSymbolTableRecord
100
AcDbLinetypeTableRecord
  2
Continuous
 70
     0
  3
Solid line
 72
    65
 73
     0
 40
0.0
  0
ENDTAB
  0
TABLE
  2
LAYER
  5
2
330
0
100
AcDbSymbolTable
 70
     3
  0
LAYER
  5
10
330
2
100
AcDbSymbolTableRecord
100
AcDbLayerTableRecord
  2
0
 70
     0
 62
     7
  6
Continuous
370
    -3
390
F
  0
LAYER
  5
2A
330
2
100
AcDbSymbolTableRecord
100
AcDbLayerTableRecord
  2
Default
 70
     0
 62
     7
  6
Continuous
370
    -3
390
F
  0
LAYER
  5
2D
330
2
100
AcDbSymbolTableRecord
100
AcDbLayerTableRecord
  2
CHASSIS
 70
     0
 62
     7
  6
Continuous
370
    -3
390
F
  0
ENDTAB
  0
TABLE
  2
STYLE
  5
3
330
0
100
AcDbSymbolTable
 70
     5
  0
STYLE
  5
11
330
3
100
AcDbSymbolTableRecord
100
AcDbTextStyleTableRecord
  2
Standard
 70
     0
 40
0.0
 41
1.0
 50
0.0
 71
     0
 42
2.5
  3
txt
  4

  0
STYLE
  5
70
330
3
100
AcDbSymbolTableRecord
100
AcDbTextStyleTableRecord
  2
SEACAD_seiso_ttf
 70
     0
 40
0.0
 41
1.0
 50
0.0
 71
     0
 42
0.2
  3
seiso.ttf
  4

  0
STYLE
  5
85
330
3
100
AcDbSymbolTableRecord
100
AcDbTextStyleTableRecord
  2
SEACAD_arial_ttfB
 70
     0
 40
0.0
 41
1.0
 50
0.0
 71
     0
 42
0.2
  3
arial.ttf
  4

  0
STYLE
  5
87
330
3
100
AcDbSymbolTableRecord
100
AcDbTextStyleTableRecord
  2
SEACAD_arial_ttfI
 70
     0
 40
0.0
 41
1.0
 50
0.0
 71
     0
 42
0.2
  3
arial.ttf
  4

  0
STYLE
  5
8F
330
3
100
AcDbSymbolTableRecord
100
AcDbTextStyleTableRecord
  2
SEACAD_seiso_ttfB
 70
     0
 40
0.0
 41
1.0
 50
0.0
 71
     0
 42
0.2
  3
seiso.ttf
  4

  0
ENDTAB
  0
TABLE
  2
VIEW
  5
6
330
0
100
AcDbSymbolTable
 70
     0
  0
ENDTAB
  0
TABLE
  2
UCS
  5
7
330
0
100
AcDbSymbolTable
 70
     0
  0
ENDTAB
  0
TABLE
  2
APPID
  5
9
330
0
100
AcDbSymbolTable
 70
     1
  0
APPID
  5
12
330
9
100
AcDbSymbolTableRecord
100
AcDbRegAppTableRecord
  2
ACAD
 70
     0
  0
ENDTAB
  0
TABLE
  2
DIMSTYLE
  5
A
330
0
100
AcDbSymbolTable
 70
     1
100
AcDbDimStyleTable
  0
DIMSTYLE
105
27
330
A
100
AcDbSymbolTableRecord
100
AcDbDimStyleTableRecord
  2
ISO-25
 70
     0
 41
2.5
 42
0.625
 43
3.75
 44
1.25
 73
     0
 74
     0
 77
     1
 78
     8
140
2.5
141
2.5
143
0.0393700787
147
0.625
171
     3
172
     1
271
     2
272
     2
274
     3
278
    44
283
     0
284
     8
340
11
  0
ENDTAB
  0
TABLE
  2
BLOCK_RECORD
  5
1
330
0
100
AcDbSymbolTable
 70
     9
  0
BLOCK_RECORD
  5
1F
330
1
100
AcDbSymbolTableRecord
100
AcDbBlockTableRecord
  2
*Model_Space
340
22
  0
BLOCK_RECORD
  5
1B
330
1
100
AcDbSymbolTableRecord
100
AcDbBlockTableRecord
  2
*Paper_Space
340
1E
  0
BLOCK_RECORD
  5
2B
330
1
100
AcDbSymbolTableRecord
100
AcDbBlockTableRecord
  2
SE
340
0
102
{BLKREFS
331
2C
102
}
1001
ACAD
1000
DesignCenter Data
1002
{
1070
     1
1070
     0
1002
}
  0
BLOCK_RECORD
  5
7A
330
1
100
AcDbSymbolTableRecord
100
AcDbBlockTableRecord
  2
SEANNOT_GROUP
340
0
102
{BLKREFS
331
7B
102
}
1001
ACAD
1000
DesignCenter Data
1002
{
1070
     1
1070
     0
1002
}
  0
BLOCK_RECORD
  5
80
330
1
100
AcDbSymbolTableRecord
100
AcDbBlockTableRecord
  2
SEANNOT_GROUP1
340
0
102
{BLKREFS
331
81
102
}
1001
ACAD
1000
DesignCenter Data
1002
{
1070
     1
1070
     0
1002
}
  0
BLOCK_RECORD
  5
8A
330
1
100
AcDbSymbolTableRecord
100
AcDbBlockTableRecord
  2
SEANNOT_GROUP2
340
0
102
{BLKREFS
331
8B
102
}
1001
ACAD
1000
DesignCenter Data
1002
{
1070
     1
1070
     0
1002
}
  0
BLOCK_RECORD
  5
92
330
1
100
AcDbSymbolTableRecord
100
AcDbBlockTableRecord
  2
SEANNOT_GROUP3
340
0
102
{BLKREFS
331
93
102
}
1001
ACAD
1000
DesignCenter Data
1002
{
1070
     1
1070
     0
1002
}
  0
BLOCK_RECORD
  5
97
330
1
100
AcDbSymbolTableRecord
100
AcDbBlockTableRecord
  2
SEANNOT_GROUP4
340
0
102
{BLKREFS
331
98
102
}
1001
ACAD
1000
DesignCenter Data
1002
{
1070
     1
1070
     0
1002
}
  0
BLOCK_RECORD
  5
9B
330
1
100
AcDbSymbolTableRecord
100
AcDbBlockTableRecord
  2
SEANNOT_GROUP5
340
0
102
{BLKREFS
331
9C
102
}
1001
ACAD
1000
DesignCenter Data
1002
{
1070
     1
1070
     0
1002
}
  0
BLOCK_RECORD
  5
A2
330
1
100
AcDbSymbolTableRecord
100
AcDbBlockTableRecord
  2
SEANNOT_GROUP6
340
0
102
{BLKREFS
331
A3
102
}
1001
ACAD
1000
DesignCenter Data
1002
{
1070
     1
1070
     0
1002
}
  0
ENDTAB
  0
ENDSEC
  0
SECTION
  2
BLOCKS
  0
BLOCK
  5
20
330
1F
100
AcDbEntity
  8
0
100
AcDbBlockBegin
  2
*Model_Space
 70
     0
 71
     0
 10
0.0
 20
0.0
 30
0.0
  3
*Model_Space
  1

  0
ENDBLK
  5
21
330
1F
100
AcDbEntity
  8
0
100
AcDbBlockEnd
  0
BLOCK
  5
1C
330
1B
100
AcDbEntity
 67
     1
  8
0
100
AcDbBlockBegin
  2
*Paper_Space
 70
     0
 71
     0
 10
0.0
 20
0.0
 30
0.0
  3
*Paper_Space
  1

  0
ENDBLK
  5
1D
330
1B
100
AcDbEntity
 67
     1
  8
0
100
AcDbBlockEnd
  0
BLOCK
  5
59
330
2B
100
AcDbEntity
  8
0
100
AcDbBlockBegin
  2
SE
 70
     0
 71
     0
 10
0.0
 20
0.0
 30
0.0
  3
SE
  1

  0
CIRCLE
  5
2E
330
2B
100
AcDbEntity
  8
CHASSIS
  6
Continuous
 62
     7
100
AcDbCircle
 10
248.2350247714
 20
226.0148096244
 30
0.0
 40
55.0
  0
LINE
  5
2F
330
2B
100
AcDbEntity
  8
CHASSIS
  6
Continuous
 62
     7
100
AcDbLine
 10
210.7350247714
 20
241.5148096244
 30
0.0
 11
210.7350247714
 21
210.5148096244
 31
0.0
  0
ARC
  5
30
330
2B
100
AcDbEntity
  8
CHASSIS
  6
Continuous
 62
     7
100
AcDbCircle
 10
207.2350247714
 20
241.5148096244
 30
0.0
 40
3.499999999999996
100
AcDbArc
 50
0.0
 51
180.0
  0
LINE
  5
31
330
2B
100
AcDbEntity
  8
CHASSIS
  6
Continuous
 62
     7
100
AcDbLine
 10
203.7350247714
 20
210.5148096244
 30
0.0
 11
203.7350247714
 21
241.5148096244
 31
0.0
  0
ARC
  5
32
330
2B
100
AcDbEntity
  8
CHASSIS
  6
Continuous
 62
     7
100
AcDbCircle
 10
207.2350247714
 20
210.5148096244
 30
0.0
 40
3.499999999999996
100
AcDbArc
 50
180.0
 51
360.0
  0
LINE
  5
33
330
2B
100
AcDbEntity
  8
CHASSIS
  6
Continuous
 62
     7
100
AcDbLine
 10
292.7350247714
 20
241.5148096244
 30
0.0
 11
292.7350247714
 21
210.5148096244
 31
0.0
  0
ARC
  5
34
330
2B
100
AcDbEntity
  8
CHASSIS
  6
Continuous
 62
     7
100
AcDbCircle
 10
289.2350247714
 20
241.5148096244
 30
0.0
 40
3.499999999999996
100
AcDbArc
 50
0.0
 51
180.0
  0
LINE
  5
35
330
2B
100
AcDbEntity
  8
CHASSIS
  6
Continuous
 62
     7
100
AcDbLine
 10
285.7350247714
 20
210.5148096244
 30
0.0
 11
285.7350247714
 21
241.5148096244
 31
0.0
  0
ARC
  5
36
330
2B
100
AcDbEntity
  8
CHASSIS
  6
Continuous
 62
     7
100
AcDbCircle
 10
289.2350247714
 20
210.5148096244
 30
0.0
 40
3.499999999999996
100
AcDbArc
 50
180.0
 51
360.0
  0
CIRCLE
  5
37
330
2B
100
AcDbEntity
  8
CHASSIS
  6
Continuous
 62
     7
100
AcDbCircle
 10
212.8796857121
 20
190.6594705651
 30
0.0
 40
1.2
  0
CIRCLE
  5
38
330
2B
100
AcDbEntity
  8
CHASSIS
  6
Continuous
 62
     7
100
AcDbCircle
 10
229.1008531531
 20
179.8208329989
 30
0.0
 40
1.2
  0
CIRCLE
  5
39
330
2B
100
AcDbEntity
  8
CHASSIS
  6
Continuous
 62
     7
100
AcDbCircle
 10
248.2350247714
 20
176.0148096244
 30
0.0
 40
1.2
  0
CIRCLE
  5
3A
330
2B
100
AcDbEntity
  8
CHASSIS
  6
Continuous
 62
     7
100
AcDbCircle
 10
267.3691963896
 20
179.8208329989
 30
0.0
 40
1.2
  0
CIRCLE
  5
3B
330
2B
100
AcDbEntity
  8
CHASSIS
  6
Continuous
 62
     7
100
AcDbCircle
 10
283.5903638307
 20
190.6594705651
 30
0.0
 40
1.2
  0
CIRCLE
  5
3C
330
2B
100
AcDbEntity
  8
CHASSIS
  6
Continuous
 62
     7
100
AcDbCircle
 10
276.5192960189
 20
197.730538377
 30
0.0
 40
1.649999999999999
  0
CIRCLE
  5
3D
330
2B
100
AcDbEntity
  8
CHASSIS
  6
Continuous
 62
     7
100
AcDbCircle
 10
268.2350247714
 20
210.3679735359
 30
0.0
 40
1.749999999999998
  0
CIRCLE
  5
3E
330
2B
100
AcDbEntity
  8
CHASSIS
  6
Continuous
 62
     7
100
AcDbCircle
 10
228.2350247714
 20
210.5148096244
 30
0.0
 40
1.750000000000002
  0
CIRCLE
  5
3F
330
2B
100
AcDbEntity
  8
CHASSIS
  6
Continuous
 62
     7
100
AcDbCircle
 10
219.9507535239
 20
197.730538377
 30
0.0
 40
1.649999999999999
  0
CIRCLE
  5
40
330
2B
100
AcDbEntity
  8
CHASSIS
  6
Continuous
 62
     7
100
AcDbCircle
 10
198.2350247714
 20
226.0148096244
 30
0.0
 40
1.2
  0
CIRCLE
  5
41
330
2B
100
AcDbEntity
  8
CHASSIS
  6
Continuous
 62
     7
100
AcDbCircle
 10
228.2350247714
 20
241.5148096244
 30
0.0
 40
1.750000000000002
  0
CIRCLE
  5
42
330
2B
100
AcDbEntity
  8
CHASSIS
  6
Continuous
 62
     7
100
AcDbCircle
 10
219.9507535239
 20
254.2990808719
 30
0.0
 40
1.649999999999999
  0
CIRCLE
  5
43
330
2B
100
AcDbEntity
  8
CHASSIS
  6
Continuous
 62
     7
100
AcDbCircle
 10
212.8796857121
 20
261.3701486838
 30
0.0
 40
1.2
  0
CIRCLE
  5
44
330
2B
100
AcDbEntity
  8
CHASSIS
  6
Continuous
 62
     7
100
AcDbCircle
 10
268.2350247714
 20
241.3679735359
 30
0.0
 40
1.750000000000002
  0
CIRCLE
  5
45
330
2B
100
AcDbEntity
  8
CHASSIS
  6
Continuous
 62
     7
100
AcDbCircle
 10
276.5192960189
 20
254.2990808719
 30
0.0
 40
1.649999999999999
  0
CIRCLE
  5
46
330
2B
100
AcDbEntity
  8
CHASSIS
  6
Continuous
 62
     7
100
AcDbCircle
 10
283.5903638307
 20
261.3701486837
 30
0.0
 40
1.2
  0
CIRCLE
  5
47
330
2B
100
AcDbEntity
  8
CHASSIS
  6
Continuous
 62
     7
100
AcDbCircle
 10
298.2350247714
 20
226.0148096244
 30
0.0
 40
1.2
  0
CIRCLE
  5
48
330
2B
100
AcDbEntity
  8
CHASSIS
  6
Continuous
 62
     7
100
AcDbCircle
 10
267.3691963896
 20
272.20878625
 30
0.0
 40
1.2
  0
CIRCLE
  5
49
330
2B
100
AcDbEntity
  8
CHASSIS
  6
Continuous
 62
     7
100
AcDbCircle
 10
248.2350247714
 20
276.0148096244
 30
0.0
 40
1.2
  0
CIRCLE
  5
4A
330
2B
100
AcDbEntity
  8
CHASSIS
  6
Continuous
 62
     7
100
AcDbCircle
 10
229.1008531531
 20
272.20878625
 30
0.0
 40
1.2
  0
CIRCLE
  5
4B
330
2B
100
AcDbEntity
  8
CHASSIS
  6
Continuous
 62
     7
100
AcDbCircle
 10
206.6615441563
 20
198.2362979734
 30
0.0
 40
1.2
  0
CIRCLE
  5
4C
330
2B
100
AcDbEntity
  8
CHASSIS
  6
Continuous
 62
     7
100
AcDbCircle
 10
220.4565131204
 20
184.4413290093
 30
0.0
 40
1.2
  0
CIRCLE
  5
4D
330
2B
100
AcDbEntity
  8
CHASSIS
  6
Continuous
 62
     7
100
AcDbCircle
 10
238.4805086706
 20
176.9755456043
 30
0.0
 40
1.2
  0
CIRCLE
  5
4E
330
2B
100
AcDbEntity
  8
CHASSIS
  6
Continuous
 62
     7
100
AcDbCircle
 10
257.9895408722
 20
176.9755456043
 30
0.0
 40
1.2
  0
CIRCLE
  5
4F
330
2B
100
AcDbEntity
  8
CHASSIS
  6
Continuous
 62
     7
100
AcDbCircle
 10
276.0135364224
 20
184.4413290093
 30
0.0
 40
1.2
  0
CIRCLE
  5
50
330
2B
100
AcDbEntity
  8
CHASSIS
  6
Continuous
 62
     7
100
AcDbCircle
 10
289.8085053865
 20
198.2362979734
 30
0.0
 40
1.2
  0
CIRCLE
  5
51
330
2B
100
AcDbEntity
  8
CHASSIS
  6
Continuous
 62
     7
100
AcDbCircle
 10
248.2350247714
 20
183.5148096244
 30
0.0
 40
2.549999999999999
  0
CIRCLE
  5
52
330
2B
100
AcDbEntity
  8
CHASSIS
  6
Continuous
 62
     7
100
AcDbCircle
 10
248.2350247714
 20
268.5148096244
 30
0.0
 40
2.55
  0
CIRCLE
  5
53
330
2B
100
AcDbEntity
  8
CHASSIS
  6
Continuous
 62
     7
100
AcDbCircle
 10
238.4805086706
 20
275.0540736446
 30
0.0
 40
1.2
  0
CIRCLE
  5
54
330
2B
100
AcDbEntity
  8
CHASSIS
  6
Continuous
 62
     7
100
AcDbCircle
 10
220.4565131204
 20
267.5882902396
 30
0.0
 40
1.2
  0
CIRCLE
  5
55
330
2B
100
AcDbEntity
  8
CHASSIS
  6
Continuous
 62
     7
100
AcDbCircle
 10
206.6615441563
 20
253.7933212754
 30
0.0
 40
1.2
  0
CIRCLE
  5
56
330
2B
100
AcDbEntity
  8
CHASSIS
  6
Continuous
 62
     7
100
AcDbCircle
 10
257.9895408722
 20
275.0540736446
 30
0.0
 40
1.2
  0
CIRCLE
  5
57
330
2B
100
AcDbEntity
  8
CHASSIS
  6
Continuous
 62
     7
100
AcDbCircle
 10
276.0135364224
 20
267.5882902396
 30
0.0
 40
1.2
  0
CIRCLE
  5
58
330
2B
100
AcDbEntity
  8
CHASSIS
  6
Continuous
 62
     7
100
AcDbCircle
 10
289.8085053865
 20
253.7933212754
 30
0.0
 40
1.2
  0
ENDBLK
  5
5A
330
2B
100
AcDbEntity
  8
0
100
AcDbBlockEnd
  0
BLOCK
  5
7D
330
7A
100
AcDbEntity
  8
0
100
AcDbBlockBegin
  2
SEANNOT_GROUP
 70
     0
 71
     0
 10
0.0
 20
0.0
 30
0.0
  3
SEANNOT_GROUP
  1

  0
TEXT
  5
7C
330
7A
100
AcDbEntity
  8
Default
  6
Continuous
 62
   136
370
     0
100
AcDbText
 10
464.874
 20
50.7035
 30
0.0
 40
3.048
  1
MJP
  7
SEACAD_seiso_ttf
 11
464.874
 21
53.7515
 31
0.0
100
AcDbText
 73
     3
  0
ENDBLK
  5
7E
330
7A
100
AcDbEntity
  8
0
100
AcDbBlockEnd
  0
BLOCK
  5
83
330
80
100
AcDbEntity
  8
0
100
AcDbBlockBegin
  2
SEANNOT_GROUP1
 70
     0
 71
     0
 10
0.0
 20
0.0
 30
0.0
  3
SEANNOT_GROUP1
  1

  0
TEXT
  5
82
330
80
100
AcDbEntity
  8
Default
  6
Continuous
 62
   136
370
     0
100
AcDbText
 10
483.924
 20
50.7035
 30
0.0
 40
3.048
  1
08/29/17
  7
SEACAD_seiso_ttf
 11
483.924
 21
53.7515
 31
0.0
100
AcDbText
 73
     3
  0
ENDBLK
  5
84
330
80
100
AcDbEntity
  8
0
100
AcDbBlockEnd
  0
BLOCK
  5
8C
330
8A
100
AcDbEntity
  8
0
100
AcDbBlockBegin
  2
SEANNOT_GROUP2
 70
     0
 71
     0
 10
0.0
 20
0.0
 30
0.0
  3
SEANNOT_GROUP2
  1

  0
ENDBLK
  5
8D
330
8A
100
AcDbEntity
  8
0
100
AcDbBlockEnd
  0
BLOCK
  5
94
330
92
100
AcDbEntity
  8
0
100
AcDbBlockBegin
  2
SEANNOT_GROUP3
 70
     0
 71
     0
 10
0.0
 20
0.0
 30
0.0
  3
SEANNOT_GROUP3
  1

  0
ENDBLK
  5
95
330
92
100
AcDbEntity
  8
0
100
AcDbBlockEnd
  0
BLOCK
  5
99
330
97
100
AcDbEntity
  8
0
100
AcDbBlockBegin
  2
SEANNOT_GROUP4
 70
     0
 71
     0
 10
0.0
 20
0.0
 30
0.0
  3
SEANNOT_GROUP4
  1

  0
ENDBLK
  5
9A
330
97
100
AcDbEntity
  8
0
100
AcDbBlockEnd
  0
BLOCK
  5
9E
330
9B
100
AcDbEntity
  8
0
100
AcDbBlockBegin
  2
SEANNOT_GROUP5
 70
     0
 71
     0
 10
0.0
 20
0.0
 30
0.0
  3
SEANNOT_GROUP5
  1

  0
TEXT
  5
9D
330
9B
100
AcDbEntity
  8
Default
  6
Continuous
 62
   136
370
     0
100
AcDbText
 10
506.149
 20
18.001
 30
0.0
 40
3.048
  1
FILE NAME: Chassis2.dft
  7
SEACAD_seiso_ttf
 11
506.149
 21
21.049
 31
0.0
100
AcDbText
 73
     3
  0
ENDBLK
  5
9F
330
9B
100
AcDbEntity
  8
0
100
AcDbBlockEnd
  0
BLOCK
  5
A5
330
A2
100
AcDbEntity
  8
0
100
AcDbBlockBegin
  2
SEANNOT_GROUP6
 70
     0
 71
     0
 10
0.0
 20
0.0
 30
0.0
  3
SEANNOT_GROUP6
  1

  0
TEXT
  5
A4
330
A2
100
AcDbEntity
  8
Default
  6
Continuous
 62
   136
370
     0
100
AcDbText
 10
553.774
 20
11.651
 30
0.0
 40
3.048
  1
SHEET 1 OF 1
  7
SEACAD_seiso_ttf
 11
553.774
 21
14.699
 31
0.0
100
AcDbText
 73
     3
  0
ENDBLK
  5
A6
330
A2
100
AcDbEntity
  8
0
100
AcDbBlockEnd
  0
ENDSEC
  0
SECTION
  2
ENTITIES
  0
INSERT
  5
2C
330
1F
100
AcDbEntity
  8
Default
100
AcDbBlockReference
  2
SE
 10
0.0
 20
0.0
 30
0.0
  0
LINE
  5
5B
330
1F
100
AcDbEntity
  8
Default
  6
Continuous
 62
     7
100
AcDbLine
 10
10.0
 20
10.0
 30
0.0
 11
584.0
 21
10.0
 31
0.0
  0
LINE
  5
5C
330
1F
100
AcDbEntity
  8
Default
  6
Continuous
 62
     7
100
AcDbLine
 10
584.0
 20
10.0
 30
0.0
 11
584.0
 21
410.0
 31
0.0
  0
LINE
  5
5D
330
1F
100
AcDbEntity
  8
Default
  6
Continuous
 62
     7
100
AcDbLine
 10
584.0
 20
410.0
 30
0.0
 11
10.0
 21
410.0
 31
0.0
  0
LINE
  5
5E
330
1F
100
AcDbEntity
  8
Default
  6
Continuous
 62
     7
100
AcDbLine
 10
10.0
 20
410.0
 30
0.0
 11
10.0
 21
10.0
 31
0.0
  0
LINE
  5
5F
330
1F
100
AcDbEntity
  8
Default
  6
Continuous
 62
     7
100
AcDbLine
 10
441.125
 20
10.0
 30
0.0
 11
441.125
 21
60.8
 31
0.0
  0
LINE
  5
60
330
1F
100
AcDbEntity
  8
Default
  6
Continuous
 62
     7
100
AcDbLine
 10
463.35
 20
32.225
 30
0.0
 11
463.35
 21
60.8
 31
0.0
  0
LINE
  5
61
330
1F
100
AcDbEntity
  8
Default
  6
Continuous
 62
     7
100
AcDbLine
 10
482.4
 20
32.225
 30
0.0
 11
482.4
 21
60.8
 31
0.0
  0
LINE
  5
62
330
1F
100
AcDbEntity
  8
Default
  6
Continuous
 62
     7
100
AcDbLine
 10
504.625
 20
10.0
 30
0.0
 11
504.625
 21
60.8
 31
0.0
  0
LINE
  5
63
330
1F
100
AcDbEntity
  8
Default
  6
Continuous
 62
     7
100
AcDbLine
 10
514.15
 20
22.7
 30
0.0
 11
514.15
 21
32.098
 31
0.0
  0
LINE
  5
64
330
1F
100
AcDbEntity
  8
Default
  6
Continuous
 62
     7
100
AcDbLine
 10
526.85
 20
10.0
 30
0.0
 11
526.85
 21
16.35
 31
0.0
  0
LINE
  5
65
330
1F
100
AcDbEntity
  8
Default
  6
Continuous
 62
     7
100
AcDbLine
 10
552.25
 20
10.0
 30
0.0
 11
552.25
 21
16.35
 31
0.0
  0
LINE
  5
66
330
1F
100
AcDbEntity
  8
Default
  6
Continuous
 62
     7
100
AcDbLine
 10
574.348
 20
22.7
 30
0.0
 11
574.348
 21
32.098
 31
0.0
  0
LINE
  5
67
330
1F
100
AcDbEntity
  8
Default
  6
Continuous
 62
     7
100
AcDbLine
 10
441.125
 20
60.8
 30
0.0
 11
584.0
 21
60.8
 31
0.0
  0
LINE
  5
68
330
1F
100
AcDbEntity
  8
Default
  6
Continuous
 62
     7
100
AcDbLine
 10
441.125
 20
55.085
 30
0.0
 11
504.625
 21
55.085
 31
0.0
  0
LINE
  5
69
330
1F
100
AcDbEntity
  8
Default
  6
Continuous
 62
     7
100
AcDbLine
 10
441.125
 20
49.37
 30
0.0
 11
504.625
 21
49.37
 31
0.0
  0
LINE
  5
6A
330
1F
100
AcDbEntity
  8
Default
  6
Continuous
 62
     7
100
AcDbLine
 10
504.625
 20
45.052
 30
0.0
 11
584.0
 21
45.052
 31
0.0
  0
LINE
  5
6B
330
1F
100
AcDbEntity
  8
Default
  6
Continuous
 62
     7
100
AcDbLine
 10
441.125
 20
43.655
 30
0.0
 11
504.625
 21
43.655
 31
0.0
  0
LINE
  5
6C
330
1F
100
AcDbEntity
  8
Default
  6
Continuous
 62
     7
100
AcDbLine
 10
441.125
 20
37.94
 30
0.0
 11
504.625
 21
37.94
 31
0.0
  0
LINE
  5
6D
330
1F
100
AcDbEntity
  8
Default
  6
Continuous
 62
     7
100
AcDbLine
 10
441.125
 20
32.225
 30
0.0
 11
584.0
 21
32.225
 31
0.0
  0
LINE
  5
6E
330
1F
100
AcDbEntity
  8
Default
  6
Continuous
 62
     7
100
AcDbLine
 10
504.625
 20
22.7
 30
0.0
 11
584.0
 21
22.7
 31
0.0
  0
LINE
  5
6F
330
1F
100
AcDbEntity
  8
Default
  6
Continuous
 62
     7
100
AcDbLine
 10
504.625
 20
16.35
 30
0.0
 11
584.0
 21
16.35
 31
0.0
  0
TEXT
  5
71
330
1F
100
AcDbEntity
  8
Default
  6
Continuous
 62
     7
100
AcDbText
 10
442.649
 20
50.7727727273
 30
0.0
 40
3.048
  1
DRAWN
  7
SEACAD_seiso_ttf
 11
442.649
 21
53.8207727273
 31
0.0
100
AcDbText
 73
     3
  0
TEXT
  5
72
330
1F
100
AcDbEntity
  8
Default
  6
Continuous
 62
     7
100
AcDbText
 10
442.649
 20
45.0577727273
 30
0.0
 40
3.048
  1
CHECKED
  7
SEACAD_seiso_ttf
 11
442.649
 21
48.1057727273
 31
0.0
100
AcDbText
 73
     3
  0
TEXT
  5
73
330
1F
100
AcDbEntity
  8
Default
  6
Continuous
 62
     7
100
AcDbText
 10
442.649
 20
39.3427727273
 30
0.0
 40
3.048
  1
ENG APPR
  7
SEACAD_seiso_ttf
 11
442.649
 21
42.3907727273
 31
0.0
100
AcDbText
 73
     3
  0
TEXT
  5
74
330
1F
100
AcDbEntity
  8
Default
  6
Continuous
 62
     7
100
AcDbText
 10
442.649
 20
33.6277727273
 30
0.0
 40
3.048
  1
MGR APPR
  7
SEACAD_seiso_ttf
 11
442.649
 21
36.6757727273
 31
0.0
100
AcDbText
 73
     3
  0
TEXT
  5
75
330
1F
100
AcDbEntity
  8
Default
  6
Continuous
 62
     7
100
AcDbText
 10
451.8853636364
 20
27.1392272727
 30
0.0
 40
3.048
  1
UNLESS OTHERWISE SPECIFIED
  7
SEACAD_seiso_ttf
 11
451.8853636364
 21
30.1872272727
 31
0.0
100
AcDbText
 73
     3
  0
TEXT
  5
76
330
1F
100
AcDbEntity
  8
Default
  6
Continuous
 62
     7
100
AcDbText
 10
449.9110909091
 20
22.1515909091
 30
0.0
 40
3.048
  1
DIMENSIONS ARE IN MILLIMETERS
  7
SEACAD_seiso_ttf
 11
449.9110909091
 21
25.1995909091
 31
0.0
100
AcDbText
 73
     3
  0
TEXT
  5
77
330
1F
100
AcDbEntity
  8
Default
  6
Continuous
 62
     7
100
AcDbText
 10
463.4192727273
 20
17.1639545455
 30
0.0
 40
3.048
  1
ANGLES ±X.X°
  7
SEACAD_seiso_ttf
 11
463.4192727273
 21
20.2119545455
 31
0.0
100
AcDbText
 73
     3
  0
TEXT
  5
78
330
1F
100
AcDbEntity
  8
Default
  6
Continuous
 62
     7
100
AcDbText
 10
455.6953636364
 20
12.1763181818
 30
0.0
 40
3.048
  1
2 PL ±X.XX 3 PL ±X.XXX
  7
SEACAD_seiso_ttf
 11
455.6953636364
 21
15.2243181818
 31
0.0
100
AcDbText
 73
     3
  0
TEXT
  5
79
330
1F
100
AcDbEntity
  8
Default
  6
Continuous
 62
     7
100
AcDbText
 10
469.0996363636
 20
56.4877727273
 30
0.0
 40
3.048
  1
NAME
  7
SEACAD_seiso_ttf
 11
469.0996363636
 21
59.5357727273
 31
0.0
100
AcDbText
 73
     3
  0
INSERT
  5
7B
330
1F
100
AcDbEntity
  8
Default
100
AcDbBlockReference
  2
SEANNOT_GROUP
 10
0.0
 20
0.0
 30
0.0
  0
TEXT
  5
7F
330
1F
100
AcDbEntity
  8
Default
  6
Continuous
 62
     7
100
AcDbText
 10
490.0835
 20
56.4877727273
 30
0.0
 40
3.048
  1
DATE
  7
SEACAD_seiso_ttf
 11
490.0835
 21
59.5357727273
 31
0.0
100
AcDbText
 73
     3
  0
INSERT
  5
81
330
1F
100
AcDbEntity
  8
Default
100
AcDbBlockReference
  2
SEANNOT_GROUP1
 10
0.0
 20
0.0
 30
0.0
  0
TEXT
  5
86
330
1F
100
AcDbEntity
  8
Default
  6
Continuous
 62
     7
100
AcDbText
 10
518.5061
 20
51.9862
 30
0.0
 40
6.096
  1
SOLID EDGE
  7
SEACAD_arial_ttfB
 11
518.5061
 21
58.0822
 31
0.0
100
AcDbText
 73
     3
  0
TEXT
  5
88
330
1F
100
AcDbEntity
  8
Default
  6
Continuous
 62
     7
100
AcDbText
 10
515.6902777778
 20
46.422425303
 30
0.0
 40
3.5
  1
UGS - The PLM Company
  7
SEACAD_arial_ttfI
 11
515.6902777778
 21
49.922425303
 31
0.0
100
AcDbText
 73
     3
  0
TEXT
  5
89
330
1F
100
AcDbEntity
  8
Default
  6
Continuous
 62
     7
100
AcDbText
 10
505.895
 20
41.7615454545
 30
0.0
 40
2.54
  1
TITLE
  7
SEACAD_seiso_ttf
 11
505.895
 21
44.3015454545
 31
0.0
100
AcDbText
 73
     3
  0
INSERT
  5
8B
330
1F
100
AcDbEntity
  8
Default
100
AcDbBlockReference
  2
SEANNOT_GROUP2
 10
0.0
 20
0.0
 30
0.0
  0
TEXT
  5
8E
330
1F
100
AcDbEntity
  8
Default
  6
Continuous
 62
     7
100
AcDbText
 10
506.8475
 20
28.9345454545
 30
0.0
 40
2.54
  1
SIZE
  7
SEACAD_seiso_ttf
 11
506.8475
 21
31.4745454545
 31
0.0
100
AcDbText
 73
     3
  0
TEXT
  5
90
330
1F
100
AcDbEntity
  8
Default
  6
Continuous
 62
     7
100
AcDbText
 10
507.6210454545
 20
24.7377727273
 30
0.0
 40
3.048
  1
A2
  7
SEACAD_seiso_ttfB
 11
507.6210454545
 21
27.7857727273
 31
0.0
100
AcDbText
 73
     3
  0
TEXT
  5
91
330
1F
100
AcDbEntity
  8
Default
  6
Continuous
 62
     7
100
AcDbText
 10
515.42
 20
28.9345454545
 30
0.0
 40
2.54
  1
DWG NO
  7
SEACAD_seiso_ttf
 11
515.42
 21
31.4745454545
 31
0.0
100
AcDbText
 73
     3
  0
INSERT
  5
93
330
1F
100
AcDbEntity
  8
Default
100
AcDbBlockReference
  2
SEANNOT_GROUP3
 10
0.0
 20
0.0
 30
0.0
  0
TEXT
  5
96
330
1F
100
AcDbEntity
  8
Default
  6
Continuous
 62
     7
100
AcDbText
 10
577.0092272727
 20
28.9345454545
 30
0.0
 40
2.54
  1
REV
  7
SEACAD_seiso_ttf
 11
577.0092272727
 21
31.4745454545
 31
0.0
100
AcDbText
 73
     3
  0
INSERT
  5
98
330
1F
100
AcDbEntity
  8
Default
100
AcDbBlockReference
  2
SEANNOT_GROUP4
 10
0.0
 20
0.0
 30
0.0
  0
INSERT
  5
9C
330
1F
100
AcDbEntity
  8
Default
100
AcDbBlockReference
  2
SEANNOT_GROUP5
 10
0.0
 20
0.0
 30
0.0
  0
TEXT
  5
A0
330
1F
100
AcDbEntity
  8
Default
  6
Continuous
 62
     7
100
AcDbText
 10
506.149
 20
11.7202727273
 30
0.0
 40
3.048
  1
SCALE:
  7
SEACAD_seiso_ttf
 11
506.149
 21
14.7682727273
 31
0.0
100
AcDbText
 73
     3
  0
TEXT
  5
A1
330
1F
100
AcDbEntity
  8
Default
  6
Continuous
 62
     7
100
AcDbText
 10
528.374
 20
11.7202727273
 30
0.0
 40
3.048
  1
WEIGHT:
  7
SEACAD_seiso_ttf
 11
528.374
 21
14.7682727273
 31
0.0
100
AcDbText
 73
     3
  0
INSERT
  5
A3
330
1F
100
AcDbEntity
  8
Default
100
AcDbBlockReference
  2
SEANNOT_GROUP6
 10
0.0
 20
0.0
 30
0.0
  0
LINE
  5
A7
330
1F
100
AcDbEntity
  8
Default
  6
Continuous
 62
     7
100
AcDbLine
 10
457.0
 20
410.0
 30
0.0
 11
457.0
 21
390.95
 31
0.0
  0
LINE
  5
A8
330
1F
100
AcDbEntity
  8
Default
  6
Continuous
 62
     7
100
AcDbLine
 10
466.652
 20
403.65
 30
0.0
 11
466.652
 21
390.95
 31
0.0
  0
LINE
  5
A9
330
1F
100
AcDbEntity
  8
Default
  6
Continuous
 62
     7
100
AcDbLine
 10
536.248
 20
403.65
 30
0.0
 11
536.248
 21
390.95
 31
0.0
  0
LINE
  5
AA
330
1F
100
AcDbEntity
  8
Default
  6
Continuous
 62
     7
100
AcDbLine
 10
558.6
 20
403.65
 30
0.0
 11
558.6
 21
390.95
 31
0.0
  0
LINE
  5
AB
330
1F
100
AcDbEntity
  8
Default
  6
Continuous
 62
     7
100
AcDbLine
 10
457.0
 20
403.65
 30
0.0
 11
584.0
 21
403.65
 31
0.0
  0
LINE
  5
AC
330
1F
100
AcDbEntity
  8
Default
  6
Continuous
 62
     7
100
AcDbLine
 10
457.0
 20
397.3
 30
0.0
 11
584.0
 21
397.3
 31
0.0
  0
TEXT
  5
AD
330
1F
100
AcDbEntity
  8
Default
  6
Continuous
 62
     7
100
AcDbText
 10
507.8923636364
 20
405.3702727273
 30
0.0
 40
3.048
  1
REVISION HISTORY
  7
SEACAD_seiso_ttf
 11
507.8923636364
 21
408.4182727273
 31
0.0
100
AcDbText
 73
     3
  0
TEXT
  5
AE
330
1F
100
AcDbEntity
  8
Default
  6
Continuous
 62
     7
100
AcDbText
 10
459.2282727273
 20
399.0202727273
 30
0.0
 40
3.048
  1
REV
  7
SEACAD_seiso_ttf
 11
459.2282727273
 21
402.0682727273
 31
0.0
100
AcDbText
 73
     3
  0
TEXT
  5
AF
330
1F
100
AcDbEntity
  8
Default
  6
Continuous
 62
     7
100
AcDbText
 10
492.687
 20
399.0202727273
 30
0.0
 40
3.048
  1
DESCRIPTION
  7
SEACAD_seiso_ttf
 11
492.687
 21
402.0682727273
 31
0.0
100
AcDbText
 73
     3
  0
TEXT
  5
B0
330
1F
100
AcDbEntity
  8
Default
  6
Continuous
 62
     7
100
AcDbText
 10
543.995
 20
399.0202727273
 30
0.0
 40
3.048
  1
DATE
  7
SEACAD_seiso_ttf
 11
543.995
 21
402.0682727273
 31
0.0
100
AcDbText
 73
     3
  0
TEXT
  5
B1
330
1F
100
AcDbEntity
  8
Default
  6
Continuous
 62
     7
100
AcDbText
 10
564.3380909091
 20
399.0202727273
 30
0.0
 40
3.048
  1
APPROVED
  7
SEACAD_seiso_ttf
 11
564.3380909091
 21
402.0682727273
 31
0.0
100
AcDbText
 73
     3
  0
ENDSEC
  0
SECTION
  2
OBJECTS
  0
DICTIONARY
  5
C
330
0
100
AcDbDictionary
281
     1
  3
ACAD_GROUP
350
D
  3
ACAD_LAYOUT
350
1A
  3
ACAD_MLINESTYLE
350
17
  3
ACAD_PLOTSETTINGS
350
19
  3
ACAD_PLOTSTYLENAME
350
E
  0
DICTIONARY
  5
D
102
{ACAD_REACTORS
330
C
102
}
330
C
100
AcDbDictionary
281
     1
  0
DICTIONARY
  5
1A
102
{ACAD_REACTORS
330
C
102
}
330
C
100
AcDbDictionary
281
     1
  3
Layout1
350
1E
  3
Model
350
22
  0
DICTIONARY
  5
17
102
{ACAD_REACTORS
330
C
102
}
330
C
100
AcDbDictionary
281
     1
  3
Standard
350
18
  0
DICTIONARY
  5
19
102
{ACAD_REACTORS
330
C
102
}
330
C
100
AcDbDictionary
281
     1
  0
ACDBDICTIONARYWDFLT
  5
E
102
{ACAD_REACTORS
330
C
102
}
330
C
100
AcDbDictionary
281
     1
  3
Normal
350
F
100
AcDbDictionaryWithDefault
340
F
  0
LAYOUT
  5
1E
102
{ACAD_REACTORS
330
1A
102
}
330
1A
100
AcDbPlotSettings
  1

  2
none_device
  4

  6

 40
0.0
 41
0.0
 42
0.0
 43
0.0
 44
0.0
 45
0.0
 46
0.0
 47
0.0
 48
0.0
 49
0.0
140
0.0
141
0.0
142
1.0
143
1.0
 70
   688
 72
     0
 73
     0
 74
     5
  7

 75
    16
147
1.0
148
0.0
149
0.0
100
AcDbLayout
  1
Layout1
 70
     1
 71
     1
 10
0.0
 20
0.0
 11
594.0
 21
420.0
 12
0.0
 22
0.0
 32
0.0
 14
0.0
 24
0.0
 34
0.0
 15
594.0
 25
420.0
 35
0.0
146
0.0
 13
0.0
 23
0.0
 33
0.0
 16
1.0
 26
0.0
 36
0.0
 17
0.0
 27
1.0
 37
0.0
 76
     0
330
1B
  0
LAYOUT
  5
22
102
{ACAD_REACTORS
330
1A
102
}
330
1A
100
AcDbPlotSettings
  1

  2
none_device
  4

  6

 40
0.0
 41
0.0
 42
0.0
 43
0.0
 44
0.0
 45
0.0
 46
0.0
 47
0.0
 48
0.0
 49
0.0
140
0.0
141
0.0
142
1.0
143
1.0
 70
  1712
 72
     0
 73
     0
 74
     0
  7

 75
     0
147
1.0
148
0.0
149
0.0
100
AcDbLayout
  1
Model
 70
     1
 71
     0
 10
0.0
 20
0.0
 11
594.0
 21
420.0
 12
0.0
 22
0.0
 32
0.0
 14
0.0
 24
0.0
 34
0.0
 15
594.0
 25
420.0
 35
0.0
146
0.0
 13
0.0
 23
0.0
 33
0.0
 16
1.0
 26
0.0
 36
0.0
 17
0.0
 27
1.0
 37
0.0
 76
     0
330
1F
  0
MLINESTYLE
  5
18
102
{ACAD_REACTORS
330
17
102
}
330
17
100
AcDbMlineStyle
  2
Standard
 70
     0
  3

 62
   256
 51
90.0
 52
90.0
 71
     2
 49
0.5
 62
   256
  6
BYLAYER
 49
-0.5
 62
   256
  6
BYLAYER
  0
ACDBPLACEHOLDER
  5
F
102
{ACAD_REACTORS
330
E
102
}
330
E
  0
ENDSEC
  0
EOF
